<?xml version="1.0" encoding="UTF-8" standalone="no"?>
<svg
   width="64"
   version="1.1"
   height="64"
   id="svg15"
   sodipodi:docname="folder-projects.svg"
   inkscape:version="1.4.2 (unknown)"
   xmlns:inkscape="http://www.inkscape.org/namespaces/inkscape"
   xmlns:sodipodi="http://sodipodi.sourceforge.net/DTD/sodipodi-0.dtd"
   xmlns:xlink="http://www.w3.org/1999/xlink"
   xmlns="http://www.w3.org/2000/svg"
   xmlns:svg="http://www.w3.org/2000/svg"
   xmlns:rdf="http://www.w3.org/1999/02/22-rdf-syntax-ns#"
   xmlns:cc="http://creativecommons.org/ns#"
   xmlns:dc="http://purl.org/dc/elements/1.1/">
  <sodipodi:namedview
     pagecolor="#ffffff"
     bordercolor="#666666"
     borderopacity="1"
     objecttolerance="10"
     gridtolerance="10"
     guidetolerance="10"
     inkscape:pageopacity="0"
     inkscape:pageshadow="2"
     inkscape:window-width="1920"
     inkscape:window-height="996"
     id="namedview17"
     showgrid="false"
     inkscape:zoom="6.9384852"
     inkscape:cx="35.310301"
     inkscape:cy="68.098437"
     inkscape:window-x="0"
     inkscape:window-y="0"
     inkscape:window-maximized="1"
     inkscape:current-layer="layer1"
     inkscape:pagecheckerboard="0"
     inkscape:showpageshadow="2"
     inkscape:deskcolor="#d1d1d1">
    <inkscape:grid
       type="xygrid"
       id="grid988"
       originx="0"
       originy="0"
       spacingy="1"
       spacingx="1"
       units="px"
       visible="false" />
  </sodipodi:namedview>
  <defs
     id="defs5455">
    <linearGradient
       id="linearGradient4194">
      <stop
         style="stop-color:#b5006a"
         id="stop4196" />
      <stop
         offset="1"
         style="stop-color:#c70073"
         id="stop4198" />
    </linearGradient>
    <linearGradient
       inkscape:collect="always"
       xlink:href="#linearGradient1295"
       id="linearGradient1493"
       gradientUnits="userSpaceOnUse"
       x1="20.750315"
       y1="1025.9873"
       x2="-12.062732"
       y2="995.35931" />
    <linearGradient
       inkscape:collect="always"
       id="linearGradient1295">
      <stop
         style="stop-color:#1d212f;stop-opacity:1;"
         offset="0"
         id="stop1291" />
      <stop
         style="stop-color:#717da8;stop-opacity:1"
         offset="1"
         id="stop1293" />
    </linearGradient>
    <linearGradient
       inkscape:collect="always"
       xlink:href="#linearGradient952"
       id="linearGradient1297"
       x1="2.0000021"
       y1="1025.9873"
       x2="62.938519"
       y2="1025.9873"
       gradientUnits="userSpaceOnUse" />
    <linearGradient
       inkscape:collect="always"
       id="linearGradient952">
      <stop
         style="stop-color:#2e354b;stop-opacity:1"
         offset="0"
         id="stop948" />
      <stop
         style="stop-color:#717da8;stop-opacity:1"
         offset="1"
         id="stop950" />
    </linearGradient>
    <linearGradient
       inkscape:collect="always"
       xlink:href="#linearGradient848"
       id="linearGradient854"
       gradientUnits="userSpaceOnUse"
       x1="203.3689"
       y1="55.640129"
       x2="244.86897"
       y2="55.640129" />
    <linearGradient
       inkscape:collect="always"
       id="linearGradient848">
      <stop
         style="stop-color:#4b8bd4;stop-opacity:1"
         offset="0"
         id="stop844" />
      <stop
         style="stop-color:#3b6ca7;stop-opacity:1"
         offset="1"
         id="stop846" />
    </linearGradient>
    <linearGradient
       inkscape:collect="always"
       xlink:href="#linearGradient848"
       id="linearGradient1004"
       gradientUnits="userSpaceOnUse"
       x1="387.57144"
       y1="505.798"
       x2="445.57141"
       y2="505.798"
       gradientTransform="matrix(1.3888828,0,0,1,-172.49732,0)" />
    <linearGradient
       inkscape:collect="always"
       xlink:href="#linearGradient873"
       id="linearGradient875"
       x1="389.57144"
       y1="523.79797"
       x2="409.57126"
       y2="523.79797"
       gradientUnits="userSpaceOnUse" />
    <linearGradient
       inkscape:collect="always"
       id="linearGradient873">
      <stop
         style="stop-color:#404868;stop-opacity:1"
         offset="0"
         id="stop869" />
      <stop
         style="stop-color:#becad8;stop-opacity:1"
         offset="1"
         id="stop871" />
    </linearGradient>
  </defs>
  <metadata
     id="metadata5458">
    <rdf:RDF>
      <cc:Work
         rdf:about="">
        <dc:format>image/svg+xml</dc:format>
        <dc:type
           rdf:resource="http://purl.org/dc/dcmitype/StillImage" />
      </cc:Work>
    </rdf:RDF>
  </metadata>
  <g
     inkscape:label="Capa 1"
     inkscape:groupmode="layer"
     id="layer1"
     transform="translate(-384.57143,-483.798)">
    <g
       transform="matrix(1.0666489,0,0,1.1427479,382.43813,-653.64677)"
       id="g19">
      <rect
         width="60"
         height="42"
         x="2"
         y="1002.36"
         rx="6.5219998"
         ry="6.5619998"
         style="opacity:0.85;fill:url(#linearGradient1493);fill-opacity:1;stroke:none"
         id="rect11" />
      <path
         d="m 8.522,1002.36 c -3.613,0 -6.522,3.3302 -6.522,6.1002 v 0.8998 c 0,-2.77 2.909,-5 6.522,-5 h 46.957 c 3.613,0 6.522,2.23 6.522,5 v -0.8998 c 0,-2.77 -2.909,-6.1002 -6.522,-6.1002 z"
         style="opacity:0.2;fill:#ffffff;fill-opacity:1;stroke:none"
         id="path13"
         sodipodi:nodetypes="sscsscsss" />
      <path
         d="m 8.522,1013.3603 h 10.435 c 14.348,-1.333 11.86095,-6.5781 20.991951,-6.5781 h 15.361736 c 3.612989,0 6.689313,1.4143 6.689313,5.1083 v 25.8035 c 0,3.693 -2.908,6.667 -6.521,6.667 H 8.522 c -3.613,0 -6.522,-2.973 -6.522,-6.667 v -18.667 c 0,-4 2.609,-5.6667 6.522,-5.6667 z"
         style="opacity:0.6;fill:url(#linearGradient1297);fill-opacity:1;stroke:none"
         id="path15"
         sodipodi:nodetypes="scsssssssss" />
      <path
         d="m 2,1035.03 v 2.667 c 0,3.693 2.909,6.667 6.522,6.667 h 46.957 c 3.613,0 6.522,-2.973 6.522,-6.667 v -2.667 c 0,3.693 -2.909,7.333 -6.522,7.333 H 8.522 c -3.613,0 -6.522,-3.64 -6.522,-7.333 z"
         style="opacity:0.15;fill:#000000;fill-opacity:1;stroke:none"
         id="path17" />
    </g>
    <rect
       y="532.59802"
       x="424.57144"
       height="0.34285715"
       width="21.866692"
       id="rect4209"
       style="fill:#000000;fill-opacity:1;fill-rule:nonzero;stroke:none;stroke-width:0.422498;stroke-linecap:round;stroke-linejoin:round;stroke-miterlimit:4;stroke-dasharray:none;stroke-dashoffset:0;stroke-opacity:1" />
    <path
       d="m 408.78868,519.91903 c -0.49831,-1.18624 -1.23374,-2.25382 -2.13516,-3.1791 -0.92528,-0.92527 -1.99286,-1.63706 -3.1791,-2.13515 -1.23391,-0.52212 -2.53866,-0.80678 -3.89106,-0.80678 -1.35241,0 -2.65716,0.28465 -3.89089,0.80661 -1.18625,0.4983 -2.25383,1.23373 -3.1791,2.13516 -0.92528,0.92527 -1.63707,1.99285 -2.13516,3.1791 -0.52212,1.23391 -0.80678,2.53865 -0.80678,3.89106 0,1.3524 0.28465,2.65715 0.80661,3.89089 0.4983,1.18624 1.23374,2.25382 2.13516,3.1791 0.92527,0.92527 1.99285,1.63706 3.1791,2.13516 1.23374,0.52195 2.53865,0.78292 3.89089,0.78292 1.3524,0 2.65715,-0.26098 3.89089,-0.78292 1.18624,-0.49831 2.25382,-1.23374 3.1791,-2.13516 0.92527,-0.92528 1.63706,-1.99286 2.13516,-3.1791 0.52195,-1.23374 0.78292,-2.53866 0.78292,-3.89089 3.4e-4,-1.35241 -0.26065,-2.65715 -0.78263,-3.8909 z"
       id="path67"
       style="fill:url(#linearGradient875);fill-opacity:1;stroke-width:0.042366" />
    <path
       d="m 405.15548,525.4857 c -0.11225,-0.34203 -0.2832,-0.66289 -0.51397,-0.96256 -0.23063,-0.29935 -0.51734,-0.56522 -0.85996,-0.79754 -0.34301,-0.23206 -0.7447,-0.41535 -1.20583,-0.54999 -0.18517,-0.0487 -0.50992,-0.12523 -0.9381,-0.2292 -0.30622,-0.0741 -0.59299,-0.15002 -0.91641,-0.22738 v -3.77582 c 0.32364,0.0856 0.54809,0.22149 0.78795,0.37249 0.51318,0.32284 0.83492,0.87518 0.92915,1.62517 h 2.48598 c -0.0272,-0.64285 -0.1672,-1.16999 -0.43106,-1.64356 -0.28975,-0.51939 -0.68197,-0.96514 -1.17625,-1.31986 -0.49413,-0.35435 -1.08622,-0.62464 -1.73855,-0.80196 -0.283,-0.0769 -0.53369,-0.1416 -0.8571,-0.18514 V 515.798 h -2.30002 v 1.18453 c -0.25187,0.0374 -0.5444,0.0874 -0.80593,0.15179 -0.61967,0.15295 -1.16394,0.38813 -1.65135,0.70585 -0.48776,0.318 -0.87517,0.71829 -1.17176,1.20097 -0.29649,0.48296 -0.44234,1.05428 -0.44234,1.71428 0,0.34233 0.0506,0.67832 0.14922,1.00839 0.099,0.33002 0.26728,0.64168 0.50467,0.93504 0.23728,0.29339 0.55686,0.55921 0.95906,0.79757 0.40191,0.23831 0.88784,0.43085 1.49411,0.57753 0.33356,0.0837 0.67669,0.16193 0.96422,0.23486 v 4.27092 c -0.39521,-0.10425 -0.78658,-0.26424 -1.10243,-0.4814 -0.32968,-0.22596 -0.5774,-0.49831 -0.76182,-0.85299 -0.17179,-0.32962 -0.25422,-0.73308 -0.26602,-1.16164 h -2.46959 c 0.029,0.74999 0.18869,1.41049 0.49138,1.97752 0.3161,0.593 0.73789,1.07 1.2651,1.44864 0.52696,0.37904 1.12819,0.65557 1.83996,0.83897 0.31919,0.0822 0.6801,0.14142 1.0036,0.18682 v 1.26235 h 2.29998 v -1.23355 c 0.35945,-0.0382 0.68123,-0.0961 1.02517,-0.17426 0.67209,-0.1526 1.28099,-0.39413 1.80827,-0.72414 0.5269,-0.33002 0.95666,-0.75457 1.27978,-1.27431 0.32279,-0.51933 0.48676,-1.14589 0.48676,-1.87925 5e-5,-0.34207 -0.0537,-0.68442 -0.16599,-1.02675 z m -6.73423,-3.34132 c -0.4312,-0.13369 -0.85934,-0.32456 -1.15184,-0.57313 -0.3096,-0.26269 -0.45541,-0.62622 -0.45541,-1.0909 0,-0.33003 0.087,-0.605 0.25207,-0.82507 0.16477,-0.22001 0.35612,-0.3942 0.6066,-0.52253 0.22206,-0.11392 0.49742,-0.19873 0.74894,-0.25491 z m 4.27301,5.34899 c -0.10597,0.23834 -0.27692,0.44914 -0.51402,0.63253 -0.23722,0.18333 -0.56577,0.33315 -0.94788,0.44917 -0.16149,0.0493 -0.29532,0.0873 -0.51115,0.11556 v -3.82532 c 0.35945,0.0937 0.65332,0.1904 0.94605,0.29038 0.28943,0.098 0.56595,0.2658 0.80995,0.50413 0.244,0.23841 0.3703,0.60822 0.3703,1.10929 3e-5,0.24462 -0.0479,0.48588 -0.15368,0.72425 z"
       id="path25907-1-5-7"
       style="fill:#2e354b;fill-opacity:1;stroke-width:0.0358245" />
  </g>
</svg>
