<?xml version="1.0" encoding="UTF-8" standalone="no"?>
<svg
   width="16"
   height="16"
   viewBox="0 0 16 16"
   id="svg8694"
   version="1.1"
   inkscape:version="1.4.2 (unknown)"
   sodipodi:docname="org.xfce.thunar.svg"
   xmlns:inkscape="http://www.inkscape.org/namespaces/inkscape"
   xmlns:sodipodi="http://sodipodi.sourceforge.net/DTD/sodipodi-0.dtd"
   xmlns:xlink="http://www.w3.org/1999/xlink"
   xmlns="http://www.w3.org/2000/svg"
   xmlns:svg="http://www.w3.org/2000/svg"
   xmlns:rdf="http://www.w3.org/1999/02/22-rdf-syntax-ns#"
   xmlns:cc="http://creativecommons.org/ns#"
   xmlns:dc="http://purl.org/dc/elements/1.1/">
  <defs
     id="defs8696">
    <linearGradient
       inkscape:collect="always"
       id="linearGradient1016">
      <stop
         style="stop-color:#00bdbd;stop-opacity:1"
         offset="0"
         id="stop1012" />
      <stop
         style="stop-color:#80b3ff;stop-opacity:1"
         offset="1"
         id="stop1014" />
    </linearGradient>
    <linearGradient
       xlink:href="#linearGradient1016"
       id="linearGradient4225-3"
       gradientUnits="userSpaceOnUse"
       x1="396.57101"
       y1="498.798"
       x2="426.57101"
       y2="511.798"
       gradientTransform="matrix(0.25503851,0,0,0.10945197,-98.205353,987.50736)" />
    <linearGradient
       id="linearGradient4227">
      <stop
         offset="0"
         style="stop-color:#f5f5f5;stop-opacity:1"
         id="stop21" />
      <stop
         offset="1"
         style="stop-color:#f9f9f9;stop-opacity:1"
         id="stop23" />
    </linearGradient>
    <linearGradient
       inkscape:collect="always"
       xlink:href="#linearGradient1295"
       id="linearGradient1493"
       gradientUnits="userSpaceOnUse"
       x1="20.750315"
       y1="1025.9873"
       x2="-12.062732"
       y2="995.35931" />
    <linearGradient
       inkscape:collect="always"
       id="linearGradient1295">
      <stop
         style="stop-color:#1d212f;stop-opacity:1;"
         offset="0"
         id="stop1291" />
      <stop
         style="stop-color:#717da8;stop-opacity:1"
         offset="1"
         id="stop1293" />
    </linearGradient>
    <linearGradient
       inkscape:collect="always"
       xlink:href="#linearGradient952"
       id="linearGradient1297"
       x1="2.0000021"
       y1="1025.9873"
       x2="62.938519"
       y2="1025.9873"
       gradientUnits="userSpaceOnUse" />
    <linearGradient
       inkscape:collect="always"
       id="linearGradient952">
      <stop
         style="stop-color:#2e354b;stop-opacity:1"
         offset="0"
         id="stop948" />
      <stop
         style="stop-color:#717da8;stop-opacity:1"
         offset="1"
         id="stop950" />
    </linearGradient>
  </defs>
  <sodipodi:namedview
     id="base"
     pagecolor="#ffffff"
     bordercolor="#666666"
     borderopacity="1.0"
     inkscape:pageopacity="0.0"
     inkscape:pageshadow="2"
     inkscape:zoom="16.000001"
     inkscape:cx="4.2812497"
     inkscape:cy="15.031249"
     inkscape:document-units="px"
     inkscape:current-layer="layer1"
     showgrid="false"
     units="px"
     inkscape:snap-bbox="true"
     inkscape:bbox-nodes="true"
     inkscape:object-nodes="true"
     inkscape:snap-global="true"
     inkscape:showpageshadow="true"
     showborder="true"
     inkscape:document-rotation="0"
     inkscape:window-width="1920"
     inkscape:window-height="996"
     inkscape:window-x="0"
     inkscape:window-y="0"
     inkscape:window-maximized="1"
     inkscape:lockguides="false"
     inkscape:pagecheckerboard="0"
     inkscape:deskcolor="#d1d1d1">
    <inkscape:grid
       type="xygrid"
       id="grid9302"
       originx="0"
       originy="0"
       spacingy="1"
       spacingx="1"
       units="px"
       visible="false" />
  </sodipodi:namedview>
  <metadata
     id="metadata8699">
    <rdf:RDF>
      <cc:Work
         rdf:about="">
        <dc:format>image/svg+xml</dc:format>
        <dc:type
           rdf:resource="http://purl.org/dc/dcmitype/StillImage" />
      </cc:Work>
    </rdf:RDF>
  </metadata>
  <g
     inkscape:label="Livello 1"
     inkscape:groupmode="layer"
     id="layer1"
     transform="translate(0,-1036.3622)">
    <g
       transform="matrix(0.26666223,0,0,0.28568698,-0.53334144,752.001)"
       id="g19">
      <rect
         width="60"
         height="42"
         x="2"
         y="1002.36"
         rx="6.5219998"
         ry="6.5619998"
         style="opacity:0.85;fill:url(#linearGradient1493);fill-opacity:1;stroke:none"
         id="rect11" />
      <path
         d="m 8.522,1002.36 c -3.613,0 -6.522,3.3302 -6.522,6.1002 v 0.8998 c 0,-2.77 2.909,-5 6.522,-5 h 46.957 c 3.613,0 6.522,2.23 6.522,5 v -0.8998 c 0,-2.77 -2.909,-6.1002 -6.522,-6.1002 z"
         style="opacity:0.2;fill:#ffffff;fill-opacity:1;stroke:none"
         id="path13"
         sodipodi:nodetypes="sscsscsss" />
      <path
         d="m 8.522,1013.3603 h 10.435 c 14.348,-1.333 11.86095,-6.5781 20.991951,-6.5781 h 15.361736 c 3.612989,0 6.689313,1.4143 6.689313,5.1083 v 25.8035 c 0,3.693 -2.908,6.667 -6.521,6.667 H 8.522 c -3.613,0 -6.522,-2.973 -6.522,-6.667 v -18.667 c 0,-4 2.609,-5.6667 6.522,-5.6667 z"
         style="opacity:0.6;fill:url(#linearGradient1297);fill-opacity:1;stroke:none"
         id="path15"
         sodipodi:nodetypes="scsssssssss" />
      <path
         d="m 2,1035.03 v 2.667 c 0,3.693 2.909,6.667 6.522,6.667 h 46.957 c 3.613,0 6.522,-2.973 6.522,-6.667 v -2.667 c 0,3.693 -2.909,7.333 -6.522,7.333 H 8.522 c -3.613,0 -6.522,-3.64 -6.522,-7.333 z"
         style="opacity:0.15;fill:#333333;fill-opacity:1;stroke:none"
         id="path17" />
    </g>
    <rect
       y="1048.5627"
       x="10"
       height="0.085714288"
       width="5.4666729"
       id="rect4209"
       style="fill:#000000;fill-opacity:1;fill-rule:nonzero;stroke:none;stroke-width:0.105624;stroke-linecap:round;stroke-linejoin:round;stroke-miterlimit:4;stroke-dasharray:none;stroke-dashoffset:0;stroke-opacity:1" />
    <path
       d="m 4.2523425,1042.0112 c -0.021565,0.037 -0.043927,0.098 -0.064872,0.1264 0.3330848,0.1961 1.2929314,0.6933 1.7485691,0.9907 0.5758597,0.3656 1.35422,1.1131 1.4155023,1.2393 -0.5989503,1.0833 -0.3271633,2.0428 -0.3979234,2.1446 -0.050908,0.088 -0.5216456,0.6228 -0.3700784,0.7022 0.1504076,0.081 0.3896198,-0.037 0.4257656,-0.074 0.075192,-0.039 0.1527646,-0.1131 0.1201976,0.016 -0.063677,0.2821 -0.35262,0.9614 0.046191,0.8169 0.048545,-0.019 0.6904088,-0.7639 0.768002,-0.79 1.2769148,0.3469 2.7051637,0.1917 2.9695377,0.069 0.137691,0.016 0.527316,0.2654 0.749317,0.3861 0.22212,0.1143 0.826999,0.421 0.647812,-0.1197 -0.05561,-0.1799 -0.453251,-0.616 -0.388686,-0.645 0.142119,-0.069 0.49381,0.1483 0.629124,0.1953 0.404749,0.1133 0.459188,-0.037 0.20369,-0.4039 -0.252254,-0.36 -0.290126,-0.3039 -0.370063,-0.4691 -0.0625,-0.1267 0,-0.2818 0.04612,-0.3177 0.08207,-0.073 1.290622,-0.7626 1.573936,-1.0297 0.419813,-0.3965 0,-0.8908 -0.102998,-0.9614 -0.870751,-0.6506 -1.764877,-0.511 -1.776439,-0.6142 -0.0059,-0.1133 -0.0038,-0.4589 -0.01877,-0.5758 -0.08669,-0.7981 -0.441687,-0.5981 -0.490249,-0.5981 -0.355002,0.067 -0.224433,0.6235 -0.07407,1.1538 0.01174,0.1284 -0.123691,0.08 -0.203692,-0.074 -0.272937,-0.7607 -0.387501,-0.7476 -0.462689,-0.7703 -0.07288,-0.016 -0.32956,0.1353 -0.325121,0.4534 0.0016,0.092 0.101882,0.5056 0.101882,0.6342 -0.167571,0.1503 -0.175877,0.4989 -0.35175,0.6246 -0.512188,0.111 -1.7429246,-0.2646 -1.8965948,-0.2796 -0.5320182,-0.105 -0.7644428,0.3112 -0.8499938,0.211 -0.6904303,-0.8228 -1.745314,-1.4334 -2.2021462,-1.5388 -0.1770515,-0.032 -0.7747966,-0.3134 -0.9900472,-0.4527 -0.034753,-0.016 -0.073988,-0.022 -0.1121722,-0.067 z m 7.6974805,1.9137 c 0.0058,-0.016 0.01283,0 0.01941,0.016 0.05093,0.1797 0.1075,0.3422 0.442941,0.3842 0.03939,0.016 -0.186189,0.1308 -0.341063,0.069 -0.141247,-0.098 -0.153932,-0.4132 -0.121379,-0.4527 z m 0.869812,0.8836 c 0.03112,-0.016 0.05332,-0.016 0.07519,0 0.08207,0.016 -0.59506,0.3878 -0.647749,0.3373 -0.03223,-0.019 0.360876,-0.2961 0.573752,-0.3373 z m 0.177067,0.2279 c 0.07044,0.016 -0.392,0.5038 -0.444124,0.4524 -0.03819,-0.025 0.299625,-0.4644 0.444124,-0.4524 z"
       id="path3"
       style="fill:#f2f2f2;stroke-width:0.245289" />
  </g>
</svg>
